<svg id="Cards" enable-background="new 0 0 64 64" height="512" viewBox="0 0 64 64" width="512" xmlns="http://www.w3.org/2000/svg"><path d="m61.34528 9.36892-5.37555 40.88334c-.36571 2.77922-2.92542 4.71734-5.68634 4.35163l-2.87063-.38401-5.35724-40.70043c-.4571-3.41924-3.38252-5.99726-6.83825-5.99726-.29261 0-.60341.0183-.8959.05491l-11.1717 1.46271.60341-4.62594c.36571-2.77912 2.90723-4.73553 5.68634-4.36994l27.53593 3.63864c2.77921.3656 4.73563 2.90712 4.36993 5.68635zm-15.7235 45.27594-5.3792-40.88294c-.3652-2.77642-2.91202-4.73107-5.68867-4.36576l-27.53348 3.62256c-2.77642.36532-4.73107 2.91226-4.36576 5.68867l5.37896 40.88295c.36532 2.77641 2.91226 4.73107 5.68867 4.36576l27.5336-3.62268c2.77642-.36533 4.73108-2.91215 4.36588-5.68856z"/></svg>