<svg width="272" height="222" viewBox="0 0 272 222" fill="none" xmlns="http://www.w3.org/2000/svg">
<path d="M64.1849 0.0317561C49.2148 -1.2597 47.5514 37.161 48.591 56.5328C24.7878 66.5385 -9.38153 97.7364 17.4034 143.706C42.066 186.032 82.3779 213.659 104.729 219.579C115.645 222.807 121.882 222.807 160.867 219.579C199.852 216.35 196.733 193.749 240.396 166.306C284.059 138.863 263.78 63.0625 223.243 56.5328C226.361 35.5469 221.683 21.0176 213.886 6.48879C207.649 -5.13428 198.812 1.64585 195.174 6.48879C194.134 7.565 185.817 16.8204 160.867 45.2324C147.144 38.7751 120.843 42.5419 109.407 45.2324C100.571 30.7036 79.155 1.32321 64.1849 0.0317561Z" fill="#875DC4"/>
<ellipse cx="64.1849" cy="116.262" rx="48.341" ry="50.0438" fill="#F3E7FF"/>
<ellipse cx="67.3036" cy="116.262" rx="23.3908" ry="33.9006" fill="black"/>
<ellipse cx="207.648" cy="116.262" rx="48.341" ry="50.0438" fill="#F3E7FF"/>
<ellipse cx="198.292" cy="116.262" rx="23.3908" ry="33.9006" fill="black"/>
<ellipse cx="134.357" cy="167.889" rx="9.35632" ry="3.22863" fill="#FB66E2"/>
<rect y="53.25" width="16" height="127" fill="#EA3535"/>
<rect x="149" y="53.25" width="16" height="127" fill="#EA3535"/>
<rect x="164.633" y="98.25" width="11.9861" height="61.4794" transform="rotate(89.5374 164.633 98.25)" fill="#EA3535"/>
<rect y="69.25" width="16" height="119" transform="rotate(-90 0 69.25)" fill="#EA3535"/>
<rect x="149" y="69.25" width="16" height="119" transform="rotate(-90 149 69.25)" fill="#EA3535"/>
<rect x="119" y="184.25" width="16" height="127" transform="rotate(-180 119 184.25)" fill="#EA3535"/>
<rect x="268" y="184.25" width="16" height="127" transform="rotate(-180 268 184.25)" fill="#EA3535"/>
<rect x="59" y="168.25" width="43" height="99" transform="rotate(-180 59 168.25)" fill="white"/>
<rect x="208" y="168.25" width="43" height="99" transform="rotate(-180 208 168.25)" fill="white"/>
<rect x="103" y="168.25" width="44" height="99" transform="rotate(-180 103 168.25)" fill="black"/>
<rect x="252" y="168.25" width="44" height="99" transform="rotate(-180 252 168.25)" fill="black"/>
<rect x="119" y="168.25" width="16" height="119" transform="rotate(90 119 168.25)" fill="#EA3535"/>
<rect x="268" y="168.25" width="16" height="119" transform="rotate(90 268 168.25)" fill="#EA3535"/>
</svg>
