<svg id="Layer_1" viewBox="0 0 512 512" xmlns="http://www.w3.org/2000/svg" data-name="Layer 1"><path d="m290.537 451.138c-7.613-6.996-16.461-12.279-26-15.68 8.783-7.352 14.382-18.388 14.382-30.711 0-22.081-17.964-40.044-40.044-40.044s-40.044 17.964-40.044 40.044c0 12.323 5.599 23.36 14.382 30.711-9.539 3.401-18.387 8.684-26 15.68-14.034 12.896-22.702 30.414-24.406 49.328-.177 1.958.479 3.9 1.805 5.351s3.201 2.277 5.167 2.277h138.192c1.966 0 3.841-.827 5.167-2.277 1.326-1.451 1.981-3.393 1.805-5.351-1.703-18.915-10.371-36.433-24.405-49.329zm-51.662-72.436c14.36 0 26.044 11.684 26.044 26.044s-11.684 26.044-26.044 26.044-26.044-11.684-26.044-26.044 11.684-26.044 26.044-26.044zm-60.972 115.392c6.088-28.46 31.078-49.08 60.972-49.08s54.884 20.62 60.971 49.08h-121.942zm-46.15-42.957c-7.613-6.996-16.46-12.279-26-15.68 8.784-7.352 14.383-18.388 14.383-30.711 0-22.081-17.964-40.044-40.045-40.044s-40.044 17.964-40.044 40.044c0 12.323 5.599 23.36 14.382 30.711-9.539 3.401-18.387 8.684-26 15.68-14.034 12.896-22.702 30.414-24.406 49.328-.177 1.958.479 3.9 1.805 5.351s3.201 2.277 5.167 2.277h138.192c1.966 0 3.841-.827 5.167-2.277 1.326-1.451 1.981-3.393 1.805-5.351-1.704-18.915-10.371-36.433-24.405-49.329zm-51.662-72.436c14.361 0 26.045 11.684 26.045 26.044s-11.684 26.044-26.045 26.044-26.044-11.684-26.044-26.044 11.684-26.044 26.044-26.044zm-60.972 115.392c6.088-28.46 31.078-49.08 60.972-49.08s54.884 20.62 60.971 49.08h-121.943zm97.781-380.23c2.733 2.734 2.733 7.166 0 9.899l-28.662 28.661c-1.32 1.321-3.105 2.05-4.949 2.05-.304 0-.608-.02-.914-.06-2.157-.284-4.061-1.555-5.148-3.44l-9.552-16.545c-1.933-3.348-.785-7.629 2.562-9.562 3.35-1.935 7.629-.786 9.562 2.562l4.99 8.645 22.212-22.21c2.734-2.734 7.167-2.733 9.899 0zm312.909 127.577c6.491-24.227 3.16-49.532-9.381-71.254s-32.79-37.26-57.018-43.751c-50.014-13.4-101.604 16.386-115.005 66.399-13.4 50.013 16.385 101.604 66.398 115.005 8.09 2.167 16.299 3.24 24.456 3.24 16.271 0 32.33-4.268 46.798-12.621 21.722-12.541 37.26-32.79 43.751-57.018zm-50.751 44.894c-18.482 10.671-40.016 13.505-60.631 7.982-42.556-11.403-67.901-55.302-56.498-97.859 9.555-35.657 41.92-59.23 77.196-59.23 6.825 0 13.763.883 20.662 2.732 20.615 5.523 37.846 18.745 48.517 37.228s13.506 40.015 7.981 60.631c-5.523 20.615-18.744 37.845-37.228 48.517zm124.478 148.733-50.367-87.239c-2.634-4.561-6.894-7.826-11.997-9.193-2.453-.657-4.955-.825-7.4-.543l-6.283-10.883c-3.271-5.665-2.32-12.539 2.365-17.104 16.665-16.237 28.673-36.759 34.726-59.348 8.98-33.515 4.371-68.521-12.977-98.569-17.349-30.048-45.36-51.542-78.875-60.522-27.643-7.407-55.631-5.268-80.463 4.375v-25.205c0-14.341-11.668-26.008-26.009-26.008h-39.609c-.011-5.565-2.36-10.601-6.623-14.184-4.272-3.59-9.65-5.037-15.15-4.078l-15.409 2.693c-2.41-14.37-14.937-25.354-29.98-25.354s-27.569 10.985-29.979 25.354l-15.409-2.693c-5.495-.962-10.878.487-15.149 4.077-4.263 3.582-6.613 8.618-6.624 14.185h-39.614c-14.341 0-26.009 11.667-26.009 26.008v262.037c0 14.341 11.668 26.008 26.009 26.008h213.545c12.552 0 23.056-8.938 25.481-20.784 4.468 1.74 9.053 3.253 13.751 4.512 22.593 6.053 46.368 5.914 68.759-.399 6.296-1.776 12.725.838 15.995 6.503l6.284 10.883c-1.467 1.976-2.573 4.227-3.23 6.68-1.367 5.103-.67 10.425 1.963 14.986l50.367 87.239c4.451 7.709 11.664 13.23 20.31 15.547 2.899.776 5.837 1.161 8.754 1.161 5.785 0 11.484-1.511 16.608-4.47 7.709-4.451 13.23-11.664 15.548-20.31 2.316-8.646 1.142-17.653-3.31-25.362zm-397.217-390.201c0-1.475.503-2.555 1.633-3.504 1.128-.949 2.278-1.26 3.732-1.004l23.196 4.055c2.036.353 4.126-.207 5.709-1.537 1.582-1.33 2.496-3.292 2.496-5.359v-3.213c0-9.042 7.355-16.398 16.397-16.398s16.398 7.356 16.398 16.398v3.213c0 2.067.914 4.029 2.496 5.359s3.675 1.892 5.709 1.537l23.196-4.055c1.449-.255 2.604.055 3.732 1.004 1.129.949 1.633 2.03 1.633 3.504v18.18h-106.327zm171.945 288.007c0 6.622-5.387 12.008-12.009 12.008h-213.545c-6.622 0-12.009-5.387-12.009-12.008v-262.037c0-6.622 5.387-12.008 12.009-12.008h39.608v11.218c0 3.866 3.134 7 7 7h120.329c3.866 0 7-3.134 7-7v-11.218h39.607c6.622 0 12.009 5.387 12.009 12.008v31.614c-9.476 5.031-18.328 11.218-26.323 18.435.186-.629.289-1.294.289-1.983 0-3.866-3.134-7-7-7h-108.289c-3.866 0-7 3.134-7 7s3.134 7 7 7h108.289c.571 0 1.123-.076 1.654-.205-4.528 4.551-8.732 9.458-12.572 14.686h-97.372c-3.866 0-7 3.134-7 7s3.134 7 7 7h88.426c-4.973 9.012-8.951 18.755-11.732 29.133-.625 2.334-1.178 4.676-1.672 7.023h-75.022c-3.866 0-7 3.134-7 7s3.134 7 7 7h72.858c-.481 4.83-.691 9.664-.628 14.481h-72.23c-3.866 0-7 3.134-7 7s3.134 7 7 7h73.181c1.525 12.391 4.859 24.551 9.96 36.156h-83.141c-3.866 0-7 3.134-7 7s3.134 7 7 7h90.319c2.999 5.083 6.302 9.918 9.891 14.481h-100.21c-3.866 0-7 3.134-7 7s3.134 7 7 7h107.573c1.513 0 2.911-.485 4.056-1.302 8.808 8.58 18.787 15.843 29.693 21.595v.92zm92.184-4.138c-19.969 5.63-41.177 5.752-61.337.351-61.729-16.54-98.491-80.216-81.951-141.944 16.539-61.729 80.218-98.491 141.944-81.952 29.902 8.013 54.895 27.19 70.373 54 15.479 26.81 19.591 58.043 11.578 87.946-5.4 20.156-16.11 38.463-30.972 52.943-9.351 9.11-11.248 22.826-4.721 34.132l5.472 9.478-12.996 7.504-5.472-9.478c-6.527-11.305-19.351-16.519-31.919-12.978zm122.874 128.071c-1.349 5.034-4.554 9.228-9.024 11.809-4.469 2.581-9.701 3.26-14.738 1.911-5.034-1.349-9.228-4.554-11.809-9.024l-50.367-87.239c-.764-1.323-.965-2.872-.565-4.363.399-1.49 1.348-2.732 2.671-3.496l23.696-13.681c.903-.522 1.892-.77 2.867-.77 1.989 0 3.928 1.032 4.991 2.875l50.367 87.24c2.581 4.471 3.26 9.705 1.91 14.738zm-114.177-239.076c-5.188-4.767-11.116-8.504-17.496-11.132 5.753-5.767 9.316-13.72 9.316-22.491 0-17.567-14.291-31.858-31.857-31.858s-31.859 14.292-31.859 31.858c0 8.77 3.563 16.724 9.317 22.491-6.379 2.628-12.308 6.365-17.496 11.132-10.876 9.993-17.593 23.57-18.914 38.229-.177 1.958.479 3.9 1.805 5.351s3.201 2.278 5.167 2.278h103.959c1.966 0 3.841-.827 5.167-2.277 1.326-1.451 1.981-3.393 1.805-5.351-1.32-14.66-8.037-28.236-18.913-38.23zm-40.037-51.481c9.847 0 17.857 8.011 17.857 17.858s-8.011 17.859-17.857 17.859-17.859-8.012-17.859-17.859 8.012-17.858 17.859-17.858zm-43.671 83.339c5.155-19.523 22.756-33.454 43.67-33.454s38.516 13.93 43.671 33.454zm-183.313 31.449-9.382 9.381 9.382 9.381c2.733 2.733 2.733 7.166 0 9.899-1.367 1.367-3.159 2.05-4.95 2.05s-3.583-.684-4.949-2.05l-9.382-9.381-9.382 9.381c-1.366 1.367-3.158 2.05-4.949 2.05s-3.583-.683-4.95-2.05c-2.733-2.734-2.733-7.166 0-9.899l9.382-9.381-9.382-9.381c-2.733-2.733-2.733-7.166 0-9.899 2.734-2.733 7.167-2.733 9.899 0l9.382 9.381 9.382-9.381c2.733-2.733 7.166-2.733 9.899 0 2.733 2.734 2.733 7.166 0 9.899zm0-78.637-9.382 9.381 9.382 9.381c2.733 2.733 2.733 7.166 0 9.899-1.367 1.367-3.159 2.05-4.95 2.05s-3.583-.684-4.949-2.05l-9.382-9.381-9.382 9.381c-1.366 1.367-3.158 2.05-4.949 2.05s-3.583-.683-4.95-2.05c-2.733-2.734-2.733-7.166 0-9.899l9.382-9.381-9.382-9.381c-2.733-2.733-2.733-7.166 0-9.899 2.734-2.733 7.167-2.733 9.899 0l9.382 9.381 9.382-9.381c2.733-2.734 7.166-2.733 9.899 0 2.733 2.734 2.733 7.166 0 9.899z"/></svg>