<svg id="Capa_1" enable-background="new 0 0 512 512" height="512" viewBox="0 0 512 512" width="512" xmlns="http://www.w3.org/2000/svg"><g><path d="m60.18 128.125h312.49v-57.99c0-32.15-26.16-58.31-58.31-58.31h-256.05c-32.15 0-58.31 26.16-58.31 58.31v154.24c0 32.15 26.16 58.31 58.31 58.31h51.02v-57.03h-49.15v-30h51.62c3.42-14.14 10.25-26.96 19.58-37.53h-71.2zm0-67.52h252.09v30h-252.09z"/><path d="m453.69 158.125h-256.05c-32.15 0-58.31 26.16-58.31 58.32v283.73h26.35l61.45-71.19h226.56c32.15 0 58.31-26.16 58.31-58.31v-154.23c0-32.16-26.16-58.32-58.31-58.32zm2.28 144.77c-2.27 3.05-56.48 74.69-131.32 74.69-31.33 0-64.05-13.02-94.62-37.65-22.53-18.15-36.14-36.28-36.7-37.04l-6.68-8.96 6.68-8.96c2.27-3.05 56.48-74.69 131.32-74.69 31.33 0 64.05 13.01 94.62 37.64 22.53 18.15 36.14 36.28 36.7 37.05l6.68 8.96z"/><path d="m324.65 240.285c-45.66 0-84 36.32-99.68 53.65 15.68 17.32 54.02 53.65 99.68 53.65s84-36.33 99.68-53.65c-15.67-17.31-54.02-53.65-99.68-53.65zm15 68.65h-30v-30h30z"/></g></svg>