<svg id="Layer_1" enable-background="new 0 0 511.996 511.996" height="512" viewBox="0 0 511.996 511.996" width="512" xmlns="http://www.w3.org/2000/svg"><path d="m401.313 194.858c-2.061 1.926 5.983-1.162-142.89 46.02-3.49 1.104 3.92 2.776-144.84-44.37-.01 0-.02-.01-.03-.01-4.637-1.451-6.488-6.761-5.18-10.04 0-1.59-1.105.627 141.3-183.36 3.219-4.13 9.44-4.131 12.66 0 143.501 185.409 141.3 181.714 141.3 183.36 1.042 2.603-.115 6.706-2.32 8.4z"/><path d="m249.869 509.133-140-167.23c-5.119-6.116.949-15.171 8.551-12.761l137.583 43.604 137.583-43.604c7.6-2.41 13.672 6.644 8.551 12.761l-140 167.23c-3.197 3.821-9.075 3.814-12.268 0z"/><path d="m398.423 310.268c-150.193 47.601-140.565 44.74-142.42 44.74-1.944 0 7.254 2.696-142.42-44.74-7.42-2.369-7.415-12.892 0-15.26l37.821-11.987c1.779-.564-4.38-2.154 102.178 31.617 1.517.48 3.237.507 4.84 0l99.761-31.617c1.706-.541-.883-1.046 40.239 11.987 7.422 2.369 7.416 12.892.001 15.26z"/><path d="m398.423 253.447c-150.193 47.601-140.565 44.74-142.42 44.74-1.944 0 7.254 2.696-142.42-44.74-7.42-2.369-7.415-12.893 0-15.26 41.037-13.006 38.513-12.534 40.247-11.984 107.191 33.973 100.317 31.984 102.173 31.984 1.852 0-5.055 2.001 102.173-31.984 1.713-.543-.851-1.041 40.247 11.984 7.421 2.37 7.415 12.893 0 15.26z"/></svg>