<svg id="Capa_1" enable-background="new 0 0 512.108 512.108" height="512" viewBox="0 0 512.108 512.108" width="512" xmlns="http://www.w3.org/2000/svg"><g><path d="m233.51 280.825c9.772 3.302 20.512.451 27.359-7.261 5.614-6.322 8.566-14.099 8.952-21.951-4.571-.129-9.181-.198-13.809-.202-28.67 0-56.245 2.544-81.64 6.419-.969 5.149-1.312 10.454-.993 15.82 1.017 17.146 8.65 32.869 21.494 44.274 34.687 30.802 87.966 27.642 118.769-7.045 13.494-15.196 22.251-33.426 25.756-52.787-12.705-1.975-25.963-3.623-39.644-4.786-.749 14.376-6.172 28.602-16.451 40.177-14.867 16.74-38.178 22.928-59.392 15.763-7.849-2.65-12.062-11.162-9.411-19.011 2.649-7.847 11.161-12.062 19.01-9.41z"/><path d="m368.936 263.426c-4.464 24.71-15.64 47.977-32.864 67.374-22.517 25.357-53.894 38.295-85.402 38.296-26.962.001-54.02-9.471-75.718-28.739-18.835-16.725-30.029-39.785-31.521-64.93-.24-4.054-.215-8.082.052-12.069-67.204 14.106-107.458 32.223-111.236 33.8 31.469 32.815 82.384 71.594 123.816 89.404 114.98 58.085 241.597-3.039 323.791-89.405-3.37-1.412-44.676-19.901-110.918-33.731z"/><path d="m508.888 246.387c.001 0 .01.003.01.003-1.146-1.477-28.585-36.581-73.088-72.049-113.747-95.516-245.806-95.488-359.522 0-44.502 35.468-71.942 70.573-73.088 72.05 0 0 .01-.003.011-.004-9.67 11.536 4.298 29.679 18.052 22.854 1.053-.479 106.746-47.829 234.786-47.829.126 0 .252.002.378.002 127.869.094 233.356 47.349 234.4 47.823 13.599 6.869 27.802-11.289 18.061-22.85z"/></g></svg>