<svg id="Layer_1" enable-background="new 0 0 160.21 285.313" height="512" viewBox="0 0 160.21 285.313" width="512" xmlns="http://www.w3.org/2000/svg"><g><path d="m45.963 49.665c-3.463 6.356-2.44 14.399 2.881 22.648 1.071 1.661 2.199 3.271 3.373 4.828-.484-2.027-.749-4.137-.755-6.308-.032-.049-.065-.097-.097-.146-4.698-7.284-5.681-14.24-2.768-19.587 2.805-5.148 8.883-8.1 16.676-8.1 2.45 0 4.976.332 7.537.954 1.979-.454 4.035-.702 6.149-.702.421 0 .838.013 1.255.032-5.061-2.126-10.131-3.284-14.941-3.284-8.924 0-15.963 3.522-19.31 9.665z"/><path d="m114.246 93.335c3.464-6.355 2.44-14.399-2.88-22.648-1.922-2.979-4.021-5.796-6.255-8.43.671 2.059 1.102 4.224 1.266 6.463.85 1.169 1.675 2.366 2.467 3.594 4.699 7.284 5.682 14.24 2.768 19.587-1.154 2.119-2.871 3.858-5.026 5.18.767.662 1.453 1.418 2.049 2.257 2.372-1.555 4.285-3.569 5.611-6.003z"/><path d="m125.044 98.604c4.32-8.164 3.007-18.089-3.698-27.948-10.328-15.183-31.56-40.656-57.73-40.656-12.849 0-23.75 5.516-28.45 14.396-4.321 8.164-3.007 18.089 3.698 27.948 4.329 6.364 10.579 14.533 18.3 21.879.811-.163 1.635-.272 2.477-.272h1.624c-8.465-7.619-15.309-16.515-19.92-23.294-6.05-8.896-7.303-17.723-3.527-24.857 4.178-7.896 14.063-12.8 25.798-12.8 24.788 0 45.254 24.65 55.249 39.344 6.05 8.896 7.303 17.724 3.527 24.857-1.982 3.746-5.26 6.807-9.4 9.002.423.841.847 1.745 1.267 2.718 4.734-2.48 8.497-5.995 10.785-10.317z"/><path d="m132.6 107.828c8.272-9.717 7.836-22.905-1.229-37.134-8.084-12.687-19.066-25.359-30.943-35.698-10.722-9.001-20.888-14.996-35.653-14.996-14.657 0-29.95 6.251-37.166 15.172-8.272 9.718-7.835 22.905 1.23 37.134 5.765 9.048 13.007 18.082 20.994 26.274.644-.777 1.38-1.462 2.178-2.061-7.851-8.048-14.975-16.932-20.641-25.825-8.298-13.023-8.822-24.948-1.452-33.606 6.71-8.295 21.043-14.088 34.857-14.088 13.904 0 23.211 5.469 33.702 14.276 11.646 10.138 22.429 22.579 30.362 35.03 8.297 13.023 8.821 24.948 1.452 33.606-3.138 3.879-7.953 7.199-13.592 9.647.285.915.563 1.884.836 2.882 6.241-2.657 11.593-6.321 15.065-10.613z"/><path d="m141.361 70.679c-11.523-17.633-24.951-32.919-34.218-42.672-10.662-10.544-19.606-18.007-37.687-18.007-15.256 0-37.715 6.315-49.256 17.988-12.052 11.48-12.531 27.224-1.351 44.333 8.478 12.973 17.982 24.667 26.106 33.83.515-1.021 1.029-1.951 1.536-2.792-7.878-8.942-16.986-20.216-25.13-32.68-10.3-15.76-9.977-30.15.94-40.551 11.001-11.125 32.506-17.128 47.155-17.128 16.976 0 25.108 6.787 35.545 17.107 9.149 9.629 22.449 24.769 33.849 42.214 10.299 15.76 9.977 30.15-.941 40.551-4.795 4.849-11.586 8.725-18.934 11.555.199.953.389 1.945.574 2.96 7.925-2.993 15.29-7.144 20.461-12.374 12.051-11.48 12.531-27.225 1.351-44.334z"/><path d="m40.919 116.573c.37-1.242.749-2.415 1.136-3.518-1.812-2.449-3.726-5.012-5.694-7.648-7.738-10.362-16.508-22.105-25.011-34.744-12.637-18.782-10.979-35.199 4.83-47.508 14.957-12.449 43.922-20.155 62.181-20.155 18.817 0 24.017 6.535 33.456 18.398l1.179 1.477c3.133 4.379 6.886 9.404 10.858 14.724 7.736 10.36 16.505 22.102 25.006 34.738 12.636 18.781 10.979 35.198-4.831 47.507-6.107 5.083-14.551 9.375-23.646 12.675.14.979.273 1.984.399 3.014 9.656-3.444 18.659-7.967 25.128-13.352 16.97-13.211 18.901-31.508 5.439-51.519-8.543-12.697-17.335-24.471-25.092-34.858-3.963-5.308-7.707-10.321-10.871-14.738l-1.223-1.536c-9.356-11.76-15.538-19.53-35.802-19.53-18.78 0-48.628 7.971-64.062 20.819-16.97 13.212-18.901 31.508-5.439 51.518 8.545 12.7 17.338 24.476 25.096 34.865 2.44 3.266 4.775 6.398 6.963 9.371z"/><path d="m104.94 102.776c-1.342-2.286-3.819-3.826-6.663-3.826h-38.635c-2.845 0-5.324 1.542-6.666 3.83-4.907 5.972-15.155 25.364-11.518 81.039.277 4.231 3.795 7.479 7.976 7.479.175 0 .353-.006.529-.017 1.223-.08 2.359-.438 3.363-.998l5.409 83.466c.442 6.816 6.325 11.979 13.137 11.538 2.708-.175 5.148-1.22 7.087-2.831 1.939 1.611 4.379 2.656 7.087 2.831 6.812.441 12.695-4.722 13.137-11.538l5.409-83.466c1.004.559 2.14.918 3.363.998.178.012.354.017.529.017 4.181 0 7.698-3.247 7.976-7.479 3.64-55.687-6.614-75.076-11.52-81.043z"/><path d="m78.96 93.252c12.428 0 22.5-10.073 22.5-22.5s-10.072-22.5-22.5-22.5c-12.426 0-22.5 10.073-22.5 22.5s10.074 22.5 22.5 22.5zm8.625-26.955c2.14 0 3.875 1.735 3.875 3.875s-1.735 3.875-3.875 3.875-3.875-1.735-3.875-3.875 1.735-3.875 3.875-3.875zm-17.25 0c2.14 0 3.875 1.735 3.875 3.875s-1.735 3.875-3.875 3.875-3.875-1.735-3.875-3.875 1.735-3.875 3.875-3.875z"/></g></svg>