<svg id="Layer_1" enable-background="new 0 0 240.614 224.127" height="512" viewBox="0 0 240.614 224.127" width="512" xmlns="http://www.w3.org/2000/svg"><g><path d="m141.19 65.628c-1.4-2.63-2.967-5.259-5.378-6-1.509-.464-3.149-.13-4.815.479 1.54 2.521 2.934 5.147 4.036 7.933.871 2.203 1.537 4.469 2.008 6.775 2.775-.274 5.542-.762 8.255-1.472z"/><path d="m124.891 49.722c.211.083.421.166.633.248 4.664 1.813 8.802 2.939 12.651 3.442 1.112.145 2.253.254 3.402.364 3.551.339 7.182.689 10.337 2.074-.233-3.47-.862-9.116-2.536-13.536-5.043 1.205-15.588 4.569-22.184 6.674-.827.264-1.598.51-2.303.734z"/><path d="m159.695 70.815c-.962.353-1.944.836-2.912 1.313l-.262.129c-2.255 1.108-4.605 2.051-7.008 2.847 2.921 5.518 5.793 11.239 7.008 17.565l.062.319c4.13-1.896 6.586-4.179 7.45-6.948 1.155-3.704-.595-7.713-2.649-11.837z"/><path d="m153.994 60.701c-3.057-3.12-7.737-3.566-12.692-4.039-1.182-.113-2.358-.225-3.503-.375-3.498-.457-7.202-1.395-11.262-2.847.971 1.37 1.938 2.752 2.872 4.168 2.291-.907 4.752-1.523 7.255-.752 3.468 1.066 5.401 4.245 7.085 7.41l4.388 8.246c2.44-.784 4.823-1.737 7.106-2.858l.26-.128c.9-.443 1.874-.922 2.893-1.316l-1.252-2.512c-.887-1.782-1.806-3.624-3.15-4.997z"/><path d="m95.786 51.708c.498 1.02 1.121 1.969 1.77 2.835.427-.615.871-1.218 1.357-1.784 3.745-4.37 9.627-6.758 15.364-6.23 1.41.13 2.773.433 4.107.817-1.25-1.485-2.583-2.888-4.067-4.109-.904-.743-2.209-1.69-3.799-2.487-1.096.604-2.135 1.203-3.111 1.777-3.037 1.789-6.221 3.793-8.919 6.322-.962.904-1.858 1.868-2.702 2.859z"/><path d="m88.703 88.698-.08-.531c-.351-2.337-.683-4.544-1.496-6.591-.357-.898-.808-1.766-1.284-2.684-.624-1.204-1.271-2.448-1.717-3.813-.387-1.181-.586-2.353-.666-3.495-1.934.762-3.491 2.466-4.273 4.691-.788 2.244-.635 4.57.421 6.382 1.695 2.905 5.149 4.515 8.254 5.795.291.12.571.226.857.34-.005-.032-.011-.063-.016-.094z"/><path d="m96.507 46.735c2.903-2.723 6.248-4.832 9.431-6.705.324-.191.656-.386.995-.581-.889-.201-1.823-.318-2.791-.318-.379 0-.763.018-1.152.056-4.112.404-7.652 3.393-8.233 6.951-.129.795-.121 1.589-.006 2.369.559-.606 1.144-1.199 1.756-1.772z"/><path d="m87.422 67.464c3.446-1.335 5.377-4.783 7.42-8.434.349-.623.705-1.251 1.068-1.876-.813-.995-1.515-1.992-2.093-2.984-.437.576-.861 1.152-1.274 1.721-2.275 3.135-4.018 5.835-5.128 8.824-.376 1.011-.643 2.02-.826 3.015.284-.083.566-.163.833-.266z"/><path d="m122.245 47.518c1.082-.34 2.473-.784 4.067-1.293 6.779-2.164 16.499-5.265 21.817-6.59-.856-1.474-1.898-2.641-3.168-3.285-5.325-2.701-12.12-3.328-19.135-1.77-4.362.97-8.538 2.698-12.25 4.559.879.547 1.743 1.167 2.584 1.86 2.334 1.92 4.288 4.177 6.085 6.519z"/><path d="m112.685 49.357c-4.377 0-8.714 1.958-11.571 5.29-.576.672-1.103 1.424-1.61 2.202 1.602 1.69 3.113 2.852 4.696 3.615 1.863.898 4.167 1.383 7.046 1.482 4.986.175 10.048-.792 14.626-2.79.277-.121.555-.246.835-.372-1.268-1.904-2.596-3.765-3.909-5.603-.389-.545-.782-1.093-1.178-1.64-2.556-1.007-5.022-1.886-7.609-2.124-.44-.04-.884-.06-1.326-.06z"/><path d="m156.065 58.672c1.666 1.7 2.733 3.843 3.675 5.733l1.516 3.041c.342-.044.686-.067 1.032-.067.813 0 1.631.131 2.445.445 1.506.581 2.803 1.713 4.085 3.562.467.673 1.205 1.329 2.004 2.015-.769-2.157-1.802-4.223-2.883-6.389-.673-1.349-1.37-2.744-1.995-4.159-1.751-3.963-2.91-8.035-3.727-11.14-1.144-4.354-2.552-8.699-6.034-9.821-1.197-.385-2.532-.325-3.927-.129 1.873 5.157 2.484 11.477 2.659 15.884.396.315.782.65 1.15 1.025z"/><path d="m169.14 75.779c-.976-.838-1.987-1.705-2.706-2.742-.934-1.35-1.807-2.147-2.745-2.508-.328-.126-.666-.201-1.012-.234l1.303 2.613c2.236 4.489 4.296 9.266 2.822 13.993-1.169 3.754-4.348 6.716-9.68 9.025.419 2.528.787 5.724.588 8.986 4.015.361 8.398-1.985 11.043-5.967 2.276-3.427 3.467-7.948 3.637-13.823.055-1.902.003-3.664-.16-5.304-.165-.19-.283-.425-.331-.691-.212-1.164-1.449-2.225-2.759-3.348z"/><path d="m112.186 77.757c-1.949-1.665-3.623-2.665-5.271-3.149-.82-.241-1.672-.36-2.524-.36-1.087 0-2.173.195-3.194.582-1.072.408-1.946.992-2.526 1.689-1.752 2.104-1.474 5.518.853 10.439.775 1.64 1.659 3.367 2.763 4.853 2.779-.071 5.197-.724 7.313-1.976 2.448-1.448 4.378-3.658 6.421-5.998.301-.345.603-.69.908-1.035-1.411-1.839-2.988-3.545-4.743-5.045z"/><path d="m122.83 109.979c.824-1.657 1.244-3.699 1.285-6.194-2.056.458-4.126 1.037-6.2 1.748-2.861.982-6.066 2.317-8.136 4.781-1.117 1.329-1.891 3.257-1.828 5.088.336.105.675.201 1.015.282 5.532 1.312 11.624-1.194 13.864-5.705z"/><path d="m96.902 88.197c-2.858-6.047-3.008-10.473-.459-13.534.911-1.094 2.164-1.95 3.726-2.544 2.407-.914 5.093-1.018 7.564-.294 2.698.792 4.909 2.506 6.337 3.726 1.786 1.525 3.396 3.25 4.855 5.101 1.729-1.74 3.644-3.286 6.007-4.239 2.718-1.097 5.598-1.223 8.383-1.345.272-.012.543-.027.815-.04-.432-2.015-1.03-3.995-1.793-5.923-1.082-2.736-2.484-5.34-4.042-7.856-.02.009-.041.018-.062.028-.403.183-.803.364-1.2.537-4.971 2.171-10.456 3.216-15.887 3.031-3.288-.114-5.972-.693-8.203-1.769-1.717-.828-3.332-2.015-4.986-3.665-.196.345-.392.691-.584 1.034-2.205 3.938-4.484 8.01-8.904 9.722-.717.278-1.435.461-2.142.628.028 1.192.211 2.331.555 3.38.374 1.141.938 2.229 1.536 3.38.488.941.994 1.915 1.404 2.949.937 2.357 1.309 4.835 1.669 7.231l.079.527c.084.555.175 1.114.267 1.674 2.476.828 4.749 1.382 6.841 1.664-.662-1.124-1.246-2.282-1.776-3.403z"/><path d="m111.023 96.041c4.028.274 8.073.029 12.037-.729-.922-3.558-2.432-6.971-4.414-10.073-.147.168-.294.334-.442.504-2.104 2.41-4.28 4.901-7.127 6.587-1.923 1.138-3.96 1.806-6.035 2.137.202.129.398.268.612.378 1.645.844 3.637 1.078 5.369 1.196z"/><path d="m145.641 100.908c1.705.427 3.361.961 4.958 1.604.538.217 1.074.447 1.609.677.895.385 1.765.754 2.632 1.058.106-2.563-.155-5.107-.484-7.238-.306.111-.61.224-.918.334-2.73.981-5.53 1.987-7.797 3.565z"/><path d="m121.888 122.908c4.985 0 9.852-2.743 12.427-7.014 1.118-1.857 1.828-3.952 2.579-6.17.797-2.351 1.614-4.763 2.97-6.915-1.583-.179-3.201-.268-4.846-.268-2.609 0-5.285.232-7.999.682.017 3.212-.504 5.857-1.594 8.047-2.72 5.478-9.51 8.55-16.105 7.434 1.115 1.143 2.791 1.865 4.471 2.47 2.34.842 5.117 1.707 7.968 1.734.044-.001.088 0 .129 0z"/><path d="m107.559 108.448c2.526-3.006 6.178-4.547 9.416-5.658 2.347-.805 4.693-1.442 7.023-1.938-.077-.905-.178-1.808-.33-2.704-4.228.814-8.541 1.077-12.841.786-2.027-.138-4.383-.425-6.497-1.509-1.347-.691-2.471-1.641-3.441-2.728-2.901-.103-5.785-.704-8.463-1.514.824 4.122 1.992 8.234 3.989 11.936 2.191 4.062 5.243 7.213 8.688 9.071.231-2.133 1.162-4.202 2.456-5.742z"/><path d="m141.984 100.169c2.888-2.828 6.739-4.213 10.474-5.556.466-.168.928-.336 1.389-.506-.026-.136-.054-.284-.079-.41l-.092-.481c-1.173-6.102-4.078-11.772-6.988-17.255-3.006.825-6.078 1.405-9.163 1.721.14 1.082.238 2.171.29 3.265.25 5.163-.751 9.022-3.061 11.798-2.228 2.678-5.484 4.006-8.255 4.759.163.93.275 1.867.364 2.806 5.223-.833 10.328-.885 15.121-.141z"/><path d="m132.525 90.891c1.823-2.191 2.606-5.398 2.393-9.804-.051-1.066-.15-2.127-.29-3.18-.395.02-.79.041-1.187.058-2.657.116-5.167.227-7.424 1.137-2.057.83-3.75 2.26-5.363 3.932 2.371 3.551 4.169 7.497 5.231 11.627 3.104-.868 5.238-2.086 6.64-3.77z"/><path d="m151.064 105.852c-.515-.221-1.029-.443-1.548-.651-2.051-.826-4.212-1.459-6.456-1.9-1.624 2.058-2.497 4.635-3.418 7.354-.756 2.23-1.542 4.532-2.786 6.63 6.724.75 11.617-.371 14.537-3.379 1.762-1.817 2.694-4.197 3.137-6.72-1.197-.376-2.347-.853-3.466-1.334z"/><path d="m239.164 97.133c-.367-5.242-1.024-9.992-1.891-13.665.268-3.467.073-7.202-.659-11.034-2.122-11.112-8.137-19.905-14.938-23.022-.302-7.093-5.506-15.711-14.219-22.271-4.637-3.491-9.609-5.903-14.324-7.174-3.945-5.682-12.161-10.53-22.269-12.437-4.243-.801-8.376-.997-12.178-.674-.976-.247-1.959-.477-2.945-.702-4.617-2.888-10.601-4.992-17.29-5.78-7.311-.862-14.191-.004-19.63 2.104-.232.002-.463.003-.695.006-5.546-2.199-12.651-3.06-20.192-2.083-6.83.882-12.904 3.132-17.524 6.172-.667.163-1.339.319-1.998.494-5.713-.38-12.341.748-18.875 3.533-7.659 3.266-13.675 8.165-17.134 13.374-4.831 1.181-9.92 3.497-14.685 6.923-9.199 6.614-14.707 15.548-14.988 22.991-5.133 7.158-8.535 13.522-10.153 17.756-1.828 4.781-2.051 10.393-1.253 16.036-2.306 4.512-1.623 11.535 2.226 18.007 2.666 4.482 6.327 7.809 10.046 9.545.449.455.895.872 1.335 1.232 7.254 5.93 14.128 11.388 46.067 10.613 5.177 11.602 9.084 22.704 39.9 19.739 8.408 7.292 22.924 19.869 30.331 26.213 10.811 9.26 36.212 46.776 50.202 51.097 7.911-3.249 10.345-6.941 10.345-6.941s-10.573-4.334-20.233-13.882c-10.237-10.118-20.769-23.448-26.112-32.175.029.025.057.05.085.074 14.839 12.759 29.917 12.561 54.931-3.491 12.343-7.92 18.684-16.272 21.948-22.705 9.791 3.26 14.661-9.243 16.368-24.483.921-2.995 1.535-6.264 1.759-9.708.318-4.924-.197-9.594-1.358-13.682zm-126.353 26.769c-2.407-.866-4.845-1.967-6.371-4.133-.496-.705-.844-1.459-1.071-2.238-4.618-1.965-8.71-5.852-11.506-11.036-2.434-4.512-3.71-9.485-4.59-14.376-.877-.325-1.72-.658-2.517-.987-3.543-1.461-7.503-3.329-9.652-7.015-1.486-2.548-1.724-5.757-.651-8.805 1.071-3.047 3.265-5.401 6.018-6.458.354-.136.708-.239 1.062-.34.21-1.827.672-3.484 1.165-4.81 1.296-3.492 3.409-6.638 5.5-9.518.713-.982 1.458-1.984 2.249-2.98-.653-1.902-.842-3.762-.552-5.536.784-4.812 5.432-8.841 10.811-9.37 2.517-.247 5.135.176 7.697 1.216 4.321-2.3 9.393-4.566 14.795-5.766 7.667-1.704 15.153-.989 21.075 2.015 2.038 1.033 3.594 2.924 4.794 5.25 1.964-.324 4.02-.521 6.004.119 5.285 1.702 6.954 8.051 7.95 11.844.788 3.001 1.907 6.93 3.574 10.706.597 1.352 1.278 2.716 1.937 4.035 1.301 2.605 2.646 5.299 3.506 8.193.968 3.256 1.376 6.952 1.248 11.298-.186 6.432-1.534 11.451-4.12 15.343-3.242 4.877-8.716 7.731-13.802 7.24-.539 2.984-1.687 5.86-3.891 8.133-2.904 2.994-7.206 4.499-12.834 4.499-1.785 0-3.709-.16-5.758-.463-3.277 3.628-8.088 5.847-12.997 5.847-.05 0-.101 0-.151-.001-3.283-.032-6.353-.982-8.922-1.906z"/></g></svg>