<svg id="Layer_1" enable-background="new 0 0 64 64" viewBox="0 0 64 64" xmlns="http://www.w3.org/2000/svg"><g><g><path d="m47.39 61.45c-.46 0-.87-.32-.98-.79-2.06-9.39.48-15.61 2.93-21.62 2.15-5.27 4.18-10.25 3.05-17.19-1.89-11.64-8.43-17.29-20-17.29-10.5 0-19.04 8.54-19.04 19.04 0 2.02.31 4 .93 5.91.07.22.06.46-.02.67l-2.96 7.54c-.09.22-.01.39.05.47s.18.23.42.23l3.07.1c.46.01.85.34.94.79l1.83 8.39c.39 1.77 2.04 2.95 3.84 2.75l10.71-1.24c.33-.14 2.44-1.17 3.74-5.5.16-.53.72-.83 1.25-.67s.83.72.67 1.25c-1.77 5.86-5.03 6.83-5.17 6.87-.05.01-.1.02-.15.03l-10.82 1.25c-2.83.33-5.42-1.53-6.02-4.31l-1.66-7.63-2.29-.08c-.82-.03-1.57-.45-2.02-1.13s-.54-1.54-.24-2.3l2.83-7.21c-.61-2-.92-4.08-.92-6.18 0-11.6 9.44-21.04 21.04-21.04 12.54 0 19.93 6.38 21.98 18.97 1.22 7.49-1.02 12.97-3.18 18.26-2.34 5.73-4.76 11.66-2.83 20.44.12.54-.22 1.07-.76 1.19-.08.02-.15.03-.22.03z"/></g><g><path d="m29.23 61.45c-.13 0-.27-.03-.4-.08-.51-.22-.74-.81-.52-1.32 1.94-4.45-1.39-8.48-1.53-8.65-.36-.42-.3-1.05.12-1.41s1.05-.31 1.41.11c.18.21 4.29 5.14 1.84 10.74-.17.38-.54.61-.92.61z"/></g></g><g><path d="m29.33 30.21c-2.13 0-4.42-.42-6.57-1.3-4-1.63-6.36-3.71-7.01-6.18-.65-2.46.68-4.36.89-4.64.19-.27 1.61-2.19 4.05-2.62.23-2.37 1.61-4.25 3.9-5.33 1.19-.56 2.89-.78 4.86-.7.07-.32.17-.62.31-.91.53-1.1 1.81-2.41 4.92-2.43h.05c2.84 0 4.25 1.34 4.97 3.37.4-.18.81-.32 1.24-.41 2.89-.59 5.34.82 6.56 3.76.6 1.45.85 3.17.69 4.9 1.17 1.4 1.96 2.91 2.33 4.46.89 3.74-.16 5.59-1.19 6.48-1.24 1.07-3.1 1.25-4.98.5-1.06-.42-2.23-1.2-3.23-2.35-1.35.42-2.66.46-3.92.22-.05.07-.1.14-.15.21-1.44 1.94-4.39 2.97-7.72 2.97zm-11.1-10.92c-.04.06-.99 1.33-.55 2.96.49 1.79 2.5 3.45 5.83 4.81 4.75 1.94 9.73 1.22 11.62-.65-1.22-.5-2.38-1.22-3.5-2.04-.69.82-1.44 1.41-2.3 1.66-.9.27-1.83.13-2.75-.41-3.11-1.82-5.34-5-5.84-8.12-1.55.4-2.47 1.73-2.48 1.74 0 .02-.01.04-.03.05zm24.83 6.67c.66.64 1.38 1.08 2.04 1.35 1.18.47 2.28.41 2.94-.16.86-.75 1.06-2.34.55-4.5-.18-.77-.5-1.54-.94-2.28-.69 2.03-2 3.92-3.99 5.23-.21.12-.41.25-.6.36zm-5.13-.84c.65.08 1.31.06 1.98-.07-.55-1.04-.95-2.26-1.09-3.66-.18-1.8-.24-3.55-.3-5.1-.04-1.04-.08-1.97-.14-2.79-.09-.04-.19-.07-.28-.11-1.15 1.46-2.16 3.4-3.11 5.25.34.47.71.96 1.1 1.44 1.65 2.06 2 3.75 1.84 5.04zm-5.14-2.37c1.04.76 2.09 1.41 3.17 1.84.02-1.16-.69-2.35-1.42-3.27-.17-.21-.35-.45-.55-.7-.41.76-.8 1.48-1.2 2.13zm7.66-8.33c.03.59.05 1.2.07 1.8.06 1.59.11 3.24.29 4.97.12 1.24.49 2.3 1 3.17.24-.13.48-.27.73-.43 2.01-1.33 3.15-3.43 3.54-5.58-1.4-1.45-3.29-2.79-5.63-3.93zm-17.65 3.13c.52 2.42 2.36 4.91 4.8 6.34.57.34.95.29 1.17.22.43-.12.86-.47 1.29-.97-.86-.72-1.69-1.46-2.49-2.17-.78-.7-1.54-1.38-2.29-2-.85-.71-1.68-1.19-2.48-1.42zm-.11-2.08c1.28.23 2.57.88 3.87 1.95.77.64 1.55 1.34 2.35 2.06.76.68 1.52 1.37 2.3 2.02.49-.82.98-1.76 1.47-2.7-1.44-2.14-2.97-4.9-3.29-7.35-1.7-.07-3.09.1-3.95.51-1.59.74-2.53 1.95-2.75 3.51zm8.75-3.83c.28 1.4 1.07 3.17 2.28 5.11.73-1.41 1.52-2.82 2.41-4.05-1.63-.51-3.23-.86-4.69-1.06zm8.83.48c.3.13.61.27.9.42 1.94.94 3.62 2 5 3.17-.08-.76-.26-1.48-.53-2.13-.49-1.19-1.71-3.1-4.31-2.57-.4.08-.79.24-1.16.45.04.22.07.44.1.66zm-8.81-2.5c1.92.25 4 .73 6.05 1.43.15-.15.31-.3.47-.44-.48-1.79-1.38-2.51-3.26-2.51-.01 0-.03 0-.04 0-1.67.01-2.72.44-3.13 1.29-.03.08-.06.15-.09.23z"/></g></svg>