<svg id="Layer_1" enable-background="new 0 0 64 64" viewBox="0 0 64 64" xmlns="http://www.w3.org/2000/svg"><g><path d="m29.14 61.61c-.13 0-.27-.03-.4-.08-.51-.22-.74-.81-.52-1.32 2.01-4.61-1.44-8.79-1.59-8.96-.36-.42-.3-1.05.12-1.41s1.05-.31 1.41.11c.18.21 4.42 5.29 1.9 11.06-.17.38-.53.6-.92.6z"/></g><g><path d="m47.89 61.61c-.46 0-.87-.32-.98-.79-2.12-9.69.5-16.11 3.03-22.31 1.68-4.12 3.28-8.03 3.47-12.79h-40.44c.16 1 .4 1.98.72 2.93.07.22.07.46-.02.68l-3.06 7.79c-.1.25.01.45.06.53.06.09.2.25.46.26l3.17.1c.46.01.85.34.94.79l1.89 8.66c.4 1.85 2.12 3.07 4 2.85l11.07-1.28c.34-.14 2.53-1.2 3.89-5.7.16-.53.72-.83 1.25-.67s.83.72.67 1.25c-1.82 6.03-5.18 7.03-5.32 7.07-.05.01-.1.02-.15.03l-11.19 1.29c-2.91.34-5.57-1.56-6.18-4.42l-1.72-7.9-2.39-.08c-.83-.03-1.6-.46-2.06-1.15-.46-.7-.55-1.58-.25-2.35l2.93-7.46c-.41-1.33-.69-2.71-.84-4.1-.03-.28.06-.56.25-.77s.46-.33.74-.33h42.6c.55 0 1 .45 1 1 .01 5.61-1.84 10.15-3.63 14.54-2.42 5.92-4.92 12.05-2.93 21.13.12.54-.22 1.07-.76 1.19-.08.01-.15.01-.22.01z"/></g><g><path d="m32.56 20.09c-.19 0-.37-.05-.54-.16-.35-.22-8.5-5.47-9.4-10.73-.26-1.53.09-2.92 1.04-4.14 1.29-1.64 2.77-2.47 4.41-2.47h.01c1.9 0 3.49 1.17 4.41 2.03.83-.91 2.27-2.13 4.11-2.22 1.73-.09 3.36.81 4.84 2.66.96 1.2 1.32 2.59 1.07 4.11-.87 5.26-9.07 10.54-9.42 10.76-.15.11-.34.16-.53.16zm-4.48-15.5c-.99 0-1.94.58-2.83 1.71-.6.76-.81 1.6-.64 2.57.57 3.37 5.52 7.36 7.96 9.03 2.45-1.67 7.43-5.68 7.98-9.05.16-.96-.06-1.79-.66-2.54-1.06-1.32-2.14-1.97-3.17-1.91-1.86.09-3.3 2.27-3.32 2.29-.18.27-.47.44-.8.46-.34 0-.63-.13-.83-.38-.04-.07-1.74-2.18-3.69-2.18z"/></g><g><path d="m44.4 21.83c-.19 0-.37-.05-.54-.16-.19-.12-4.7-3.02-6.77-6.42-.29-.47-.14-1.09.33-1.37.47-.29 1.09-.14 1.37.33 1.44 2.36 4.39 4.57 5.6 5.41 2.02-1.4 5.91-4.57 6.34-7.21.12-.74-.04-1.35-.5-1.93-.83-1.03-1.63-1.53-2.44-1.5-1.19.06-2.26 1.31-2.57 1.79-.18.27-.47.44-.8.45-.32.01-.63-.13-.83-.39-.01-.01-1-1.26-2.27-1.61-.53-.15-.85-.7-.7-1.23s.69-.84 1.23-.7c1.02.28 1.88.9 2.47 1.42.72-.75 1.89-1.67 3.36-1.74 1.48-.06 2.86.68 4.11 2.25.82 1.03 1.12 2.21.91 3.51-.73 4.38-7.49 8.74-7.78 8.93-.15.12-.33.17-.52.17z"/></g><g><path d="m20.72 21.83c-.19 0-.37-.05-.54-.16-.29-.18-7.02-4.52-7.77-8.9-.22-1.31.08-2.5.89-3.53 1.09-1.39 2.35-2.06 3.75-2.09 1.52 0 2.8.87 3.59 1.58.6-.63 1.52-1.38 2.68-1.65.54-.13 1.07.21 1.2.75.12.54-.21 1.08-.75 1.2-1.05.24-1.96 1.34-2.23 1.75-.18.27-.47.44-.8.46-.32 0-.63-.13-.83-.38-.37-.47-1.62-1.7-2.88-1.7-.75 0-1.48.45-2.17 1.33-.46.58-.62 1.22-.49 1.96.45 2.65 4.32 5.8 6.33 7.19 1.21-.84 4.18-3.05 5.61-5.41.29-.47.9-.62 1.37-.33s.62.9.33 1.37c-2.07 3.39-6.59 6.29-6.78 6.42-.14.09-.32.14-.51.14z"/></g></svg>