<svg id="Layer_1" enable-background="new 0 0 64 64" viewBox="0 0 64 64" xmlns="http://www.w3.org/2000/svg"><g><path d="m16.56 61.84c-.55 0-1-.45-1-1v-7.99c0-.55.45-1 1-1s1 .45 1 1v7.99c0 .55-.45 1-1 1z"/></g><g><path d="m47.44 61.84c-.55 0-1-.45-1-1v-7.99c0-.55.45-1 1-1s1 .45 1 1v7.99c0 .55-.45 1-1 1z"/></g><g><path d="m57.09 61.96c-.55 0-1-.45-1-1v-6.18c0-10.24-8.33-18.58-18.57-18.58h-11.03c-10.24 0-18.57 8.33-18.57 18.58v6.18c0 .55-.45 1-1 1s-1-.45-1-1v-6.18c0-11.34 9.23-20.58 20.57-20.58h11.02c11.34 0 20.57 9.23 20.57 20.58v6.18c.01.55-.44 1-.99 1z"/></g><g><path d="m32.34 41.88c-5.89 0-10.16-5.48-10.34-5.71-.34-.44-.25-1.06.18-1.4.44-.34 1.06-.25 1.4.18.04.05 3.87 4.93 8.76 4.93h.01c2.84 0 5.56-1.66 8.08-4.93.34-.44.96-.52 1.4-.18s.52.96.18 1.4c-2.92 3.79-6.18 5.71-9.67 5.71z"/></g><g><path d="m32.13 36.21c-.38 0-.72-.21-.89-.55l-2.45-4.83c-.61-1.2-1.83-1.95-3.18-1.95h-5.74c-3.96 0-7.17-3.22-7.17-7.17v-12.5c0-3.96 3.22-7.17 7.17-7.17h24.25c3.96 0 7.17 3.22 7.17 7.17v12.49c0 3.96-3.22 7.17-7.17 7.17h-5.64c-1.37 0-2.64.8-3.23 2.05l-2.22 4.71c-.16.35-.51.57-.89.57 0 .01 0 .01-.01.01zm-12.26-32.17c-2.85 0-5.17 2.32-5.17 5.17v12.49c0 2.85 2.32 5.17 5.17 5.17h5.74c2.11 0 4.01 1.17 4.96 3.05l1.53 3.01 1.35-2.86c.91-1.94 2.89-3.19 5.03-3.19h5.64c2.85 0 5.17-2.32 5.17-5.17v-12.5c0-2.85-2.32-5.17-5.17-5.17z"/></g><g><path d="m32 23.74c-.15 0-.31-.04-.45-.11-8.19-4.08-8.65-8.82-8.47-10.67.23-2.41 1.87-4.44 4.06-5.04 2.32-.64 3.91.46 4.86 1.78.95-1.32 2.54-2.42 4.86-1.78 2.19.6 3.82 2.63 4.06 5.04.18 1.85-.29 6.59-8.47 10.67-.14.07-.3.11-.45.11zm-3.6-13.99c-.23 0-.47.03-.73.1-1.4.38-2.44 1.71-2.6 3.3-.14 1.41.28 5 6.93 8.46 6.65-3.46 7.07-7.05 6.93-8.46-.15-1.59-1.2-2.92-2.6-3.3-2.42-.66-3.28 2.06-3.37 2.38-.12.43-.52.73-.96.73-.45 0-.84-.3-.96-.73-.08-.28-.77-2.48-2.64-2.48z"/></g></svg>