<svg id="Layer_1" enable-background="new 0 0 64 64" viewBox="0 0 64 64" xmlns="http://www.w3.org/2000/svg"><g><g><path d="m28.61 58.39h-22.42c-2.57 0-4.66-2.09-4.66-4.66v-38.18c0-2.57 2.09-4.66 4.66-4.66h22.42c2.57 0 4.66 2.09 4.66 4.66v38.17c.01 2.58-2.09 4.67-4.66 4.67zm-22.42-45.5c-1.47 0-2.66 1.2-2.66 2.66v38.17c0 1.47 1.2 2.66 2.66 2.66h22.42c1.47 0 2.66-1.2 2.66-2.66v-38.17c0-1.47-1.2-2.66-2.66-2.66z"/></g><g><path d="m32.28 18.36h-29.75c-.55 0-1-.45-1-1s.45-1 1-1h29.75c.55 0 1 .45 1 1s-.45 1-1 1z"/></g><g><path d="m32.28 50.19h-29.75c-.55 0-1-.45-1-1s.45-1 1-1h29.75c.55 0 1 .45 1 1s-.45 1-1 1z"/></g><g><g><path d="m17.4 44.89c-6.41 0-11.62-5.21-11.62-11.62s5.22-11.61 11.62-11.61 11.62 5.21 11.62 11.62-5.21 11.61-11.62 11.61zm0-21.23c-5.3 0-9.62 4.31-9.62 9.62s4.31 9.62 9.62 9.62 9.62-4.31 9.62-9.62-4.32-9.62-9.62-9.62z"/></g><g><path d="m17.4 44.89c-3.45 0-6.05-4.99-6.05-11.62 0-6.62 2.6-11.62 6.05-11.62s6.05 4.99 6.05 11.62-2.6 11.62-6.05 11.62zm0-21.23c-1.91 0-4.05 3.95-4.05 9.62s2.13 9.62 4.05 9.62 4.05-3.95 4.05-9.62-2.13-9.62-4.05-9.62z"/></g><g><g><path d="m17.4 30.45c-1.61 0-3.21-.07-4.76-.21-.43-.04-.84-.08-1.26-.12-1.34-.15-2.55-.34-3.7-.56-.54-.11-.89-.63-.79-1.18.11-.54.64-.89 1.18-.78 1.08.21 2.27.39 3.54.54.4.05.8.08 1.21.12 2.97.26 6.19.26 9.16 0 .41-.04.81-.07 1.21-.12 1.27-.15 2.46-.33 3.54-.54.54-.1 1.07.25 1.18.79s-.25 1.07-.79 1.18c-1.15.23-2.36.41-3.7.56-.42.05-.83.09-1.26.12-1.54.13-3.14.2-4.76.2z"/></g><g><path d="m26.93 38.97c-.06 0-.13-.01-.19-.02-1.1-.21-2.29-.39-3.54-.53-.4-.05-.8-.08-1.21-.12-2.97-.26-6.19-.26-9.17 0-.41.04-.81.07-1.21.12-1.25.14-2.45.32-3.55.53-.55.1-1.06-.25-1.17-.79s.25-1.07.79-1.17c1.15-.22 2.4-.41 3.7-.56.41-.05.83-.09 1.26-.12 3.09-.27 6.43-.27 9.52 0 .43.04.85.08 1.26.12 1.3.15 2.54.33 3.7.56.54.1.9.63.79 1.17-.09.47-.51.81-.98.81z"/></g></g></g><g><path d="m61.47 20.72h-11.44c-.55 0-1-.45-1-1v-3.21c0-2.5 2.04-4.54 4.54-4.54h4.37c2.5 0 4.54 2.04 4.54 4.54v3.21c-.01.56-.45 1-1.01 1zm-10.44-2h9.44v-2.21c0-1.4-1.14-2.54-2.54-2.54h-4.37c-1.4 0-2.54 1.14-2.54 2.54v2.21z"/></g><g><path d="m55.75 13.97c-2.64 0-4.79-2.15-4.79-4.79s2.15-4.79 4.79-4.79 4.79 2.15 4.79 4.79-2.15 4.79-4.79 4.79zm0-7.57c-1.54 0-2.79 1.25-2.79 2.79s1.25 2.79 2.79 2.79 2.79-1.25 2.79-2.79-1.25-2.79-2.79-2.79z"/></g><g><path d="m61.47 38.81h-11.44c-.55 0-1-.45-1-1v-3.21c0-2.5 2.04-4.54 4.54-4.54h4.37c2.5 0 4.54 2.04 4.54 4.54v3.21c-.01.56-.45 1-1.01 1zm-10.44-2h9.44v-2.21c0-1.4-1.14-2.54-2.54-2.54h-4.37c-1.4 0-2.54 1.14-2.54 2.54v2.21z"/></g><g><path d="m55.75 32.06c-2.64 0-4.79-2.15-4.79-4.79s2.15-4.79 4.79-4.79 4.79 2.15 4.79 4.79-2.15 4.79-4.79 4.79zm0-7.57c-1.54 0-2.79 1.25-2.79 2.79s1.25 2.79 2.79 2.79 2.79-1.25 2.79-2.79-1.25-2.79-2.79-2.79z"/></g><g><path d="m61.47 57.27h-11.44c-.55 0-1-.45-1-1v-3.21c0-2.5 2.04-4.54 4.54-4.54h4.37c2.5 0 4.54 2.04 4.54 4.54v3.21c-.01.56-.45 1-1.01 1zm-10.44-2h9.44v-2.21c0-1.4-1.14-2.54-2.54-2.54h-4.37c-1.4 0-2.54 1.14-2.54 2.54v2.21z"/></g><g><path d="m55.75 50.52c-2.64 0-4.79-2.15-4.79-4.79s2.15-4.79 4.79-4.79 4.79 2.15 4.79 4.79-2.15 4.79-4.79 4.79zm0-7.57c-1.54 0-2.79 1.25-2.79 2.79s1.25 2.79 2.79 2.79 2.79-1.25 2.79-2.79-1.25-2.79-2.79-2.79z"/></g><g><path d="m45.09 35.64h-12.81c-.55 0-1-.45-1-1s.45-1 1-1h12.82c.55 0 1 .45 1 1s-.45 1-1.01 1z"/></g><g><path d="m45.09 53.9h-3.42c-2.2 0-3.99-1.79-3.99-3.99v-29.56c0-2.2 1.79-3.99 3.99-3.99h3.42c.55 0 1 .45 1 1s-.45 1-1 1h-3.42c-1.1 0-1.99.89-1.99 1.99v29.55c0 1.1.89 1.99 1.99 1.99h3.42c.55 0 1 .45 1 1s-.44 1.01-1 1.01z"/></g></g></svg>