<svg width="241" height="241" viewBox="0 0 241 241" fill="none" xmlns="http://www.w3.org/2000/svg">
<rect width="241" height="241" rx="120.5" fill="#433C9D"/>
<path fill-rule="evenodd" clip-rule="evenodd" d="M49.9472 24.4534C66.8752 -13.8036 174.499 -6.80157 207.614 42.8624C240.729 92.5254 202.883 202.859 168.958 202.859C135.033 202.859 135.033 128.365 121.045 106.488C107.057 84.6114 33.0202 62.7104 49.9472 24.4534Z" fill="#91FFBD" fill-opacity="0.7"/>
<path fill-rule="evenodd" clip-rule="evenodd" d="M14.75 132.933C24.3443 150.905 41.1552 137.36 62.7672 118.559C84.3802 99.7595 111.783 81.1974 102.188 63.2254C92.5942 45.2534 58.1242 47.5484 36.5112 66.3494C14.8985 85.1504 5.1556 114.961 14.75 132.933Z" fill="#2B44FF" fill-opacity="0.6"/>
<path fill-rule="evenodd" clip-rule="evenodd" d="M201.185 188.076C214.858 188.076 229.943 174.983 229.943 158.3C229.943 141.617 214.858 128.524 201.185 128.524C187.511 128.524 182.426 147.617 182.426 161.3C182.426 174.983 187.511 188.076 201.185 188.076Z" fill="#FF73C6" fill-opacity="0.7"/>
<path fill-rule="evenodd" clip-rule="evenodd" d="M108.81 120.137C111.616 121.835 114.374 122.655 115.668 122.321C118.915 121.48 119.213 109.558 116.701 104.858C114.19 100.158 101.277 98.1094 100.626 107.422C100.4 110.654 101.752 113.538 103.75 115.892L100.168 132.65H110.571L108.81 120.137Z" fill="#B28B67"/>
<path fill-rule="evenodd" clip-rule="evenodd" d="M102.95 117.988C101.645 112.157 97.9247 108.182 98.4928 105.575C99.0609 102.969 101.521 102.334 101.521 102.334C101.521 102.334 102.794 97.1666 109.728 97.9379C116.663 98.71 120.896 101.601 119.068 107.963C117.388 107.963 115.359 107.353 112.555 108.398C111.219 108.895 110.645 111.483 110.645 111.483H109.377C109.377 111.483 107.532 108.412 105.738 109.226C103.945 110.04 104.923 113.181 104.923 113.181L104.299 117.988H102.95Z" fill="#191847"/>
<path fill-rule="evenodd" clip-rule="evenodd" d="M81.3662 187.042H114.852L119.24 241H69.3931L81.3662 187.042Z" fill="#C5CFD6"/>
<path fill-rule="evenodd" clip-rule="evenodd" d="M81.3662 187.042H91.6651L97.8288 241H69.3931L81.3662 187.042Z" fill="black" fill-opacity="0.1"/>
<path fill-rule="evenodd" clip-rule="evenodd" d="M133.251 197.732C129.488 205.744 123.608 225.192 123.608 225.192L128.599 227.482C128.599 227.482 141.266 207.038 149.006 193.063C148.645 196.209 148.279 199.751 147.938 203.475C147.131 212.295 147.938 231.351 148.371 236.856C148.645 240.316 153.327 239.591 153.764 236.847C153.838 236.383 154.139 234.751 154.59 232.317C156.798 220.379 162.576 189.139 162.585 181.489C162.589 178.411 156.6 175.646 153.029 177.798C150.577 175.171 145.936 173.657 143.269 177.997C141.574 180.755 137.546 188.587 133.251 197.732Z" fill="#B28B67"/>
<path fill-rule="evenodd" clip-rule="evenodd" d="M123.964 217.992L141.098 177.246C145.203 170.618 156.711 178.595 155.311 182.439C152.133 191.167 135.972 219.423 135.025 222.024L123.964 217.992Z" fill="#1F28CF"/>
<path fill-rule="evenodd" clip-rule="evenodd" d="M124.8 223.461C124.199 222.72 123.11 222.528 122.404 223.166C121.816 223.699 121.199 224.316 120.931 224.784C120.344 225.804 119.558 227.955 119.558 227.955C120.736 228.638 140.73 240.226 140.73 240.226C140.73 240.226 143.13 237.965 141.478 236.717C139.826 235.468 138.75 234.61 138.75 234.61L131.672 224.819C131.403 224.447 130.882 224.372 130.519 224.651L129.309 225.587C129.309 225.587 127.219 225.404 126.191 224.807C125.749 224.551 125.239 224.003 124.8 223.461Z" fill="#E4E4E4"/>
<path fill-rule="evenodd" clip-rule="evenodd" d="M149.244 234.479C148.354 234.137 147.312 234.519 147.018 235.426C146.774 236.181 146.548 237.026 146.548 237.565C146.548 238.742 146.939 241 146.939 241C148.298 241 171.386 241 171.386 241C171.386 241 172.339 237.838 170.286 237.585C168.233 237.333 166.875 237.13 166.875 237.13L155.87 232.205C155.451 232.017 154.96 232.214 154.786 232.638L154.204 234.054C154.204 234.054 152.303 234.945 151.115 234.945C150.606 234.945 149.893 234.727 149.244 234.479Z" fill="#E4E4E4"/>
<path fill-rule="evenodd" clip-rule="evenodd" d="M163.787 184.619C163.787 196.18 158.318 223.146 158.314 225.691L146.548 225.7C146.548 225.7 149.131 189.609 148.38 189.219C147.629 188.831 117.582 192.231 108.571 192.231C95.5767 192.231 90.2013 184.005 89.7649 168.766H115.506C120.748 169.33 148.086 174.865 158.239 176.768C162.585 177.583 163.787 181.435 163.787 184.619Z" fill="#2B44FF"/>
<path fill-rule="evenodd" clip-rule="evenodd" d="M150.172 119.144L133.742 124.095L137.937 131.11L150.711 123.563C156.674 123.206 159.491 122.616 159.164 121.791C158.887 121.097 158.228 120.978 157.622 120.869C157.149 120.784 156.709 120.705 156.504 120.363C156.037 119.582 157.673 117.551 159.308 115.689C160.943 113.827 159.634 113.741 158.844 113.889C156.128 114.997 153.237 116.748 150.172 119.144ZM146.116 163.367L132.29 153.174L129.234 160.759L142.926 166.459C146.798 171.025 148.963 172.929 149.422 172.17C149.808 171.53 149.505 170.931 149.227 170.379C149.01 169.949 148.809 169.547 148.958 169.178C149.297 168.334 151.899 168.423 154.364 168.613C156.828 168.803 156.11 167.702 155.516 167.159C152.999 165.646 149.867 164.382 146.116 163.367Z" fill="#B28B67"/>
<path fill-rule="evenodd" clip-rule="evenodd" d="M110.814 125.725C118.344 139.819 129.231 150.623 145.016 161.854L139.039 168.619C121.415 162.044 112.113 158.077 107.546 144.762C106.4 141.42 105.598 130.766 104.911 125.16L110.814 125.725Z" fill="#2026A2"/>
<path fill-rule="evenodd" clip-rule="evenodd" d="M89.765 172.683H123.141C123.141 172.683 111.801 137.962 111.555 125.022C111.547 124.582 110.737 123.807 110.38 123.909C106.454 125.022 101.976 123.076 101.976 123.076C94.0643 135.851 91.3279 151.58 89.765 172.683Z" fill="#F2F2F2"/>
<path fill-rule="evenodd" clip-rule="evenodd" d="M110.348 142.566C115.561 165.014 115.321 183.39 103.812 183.39H86.0166C83.19 164.321 90.6183 137.881 97.5045 124.546C97.7679 124.036 98.3278 123.076 99.6469 123.076H104.817C104.82 123.083 104.822 123.09 104.825 123.097C106.38 123.11 108.094 123.167 109.95 123.228C119.503 123.547 132.825 123.991 147.815 119.16L149.582 128.025C136.052 136.76 122.353 143.527 110.348 142.566Z" fill="#1F28CF"/>
</svg>
